<svg xmlns="http://www.w3.org/2000/svg" class="blockout" viewBox="0 0 1620 990" preserveAspectRatio="xMidYMid slice" aria-hidden="true"><defs><linearGradient id="bo-floor" x1="0" y1="0" x2="0" y2="1"><stop offset="0%" stop-color="#25262b"></stop><stop offset="100%" stop-color="#161719"></stop></linearGradient><linearGradient id="bo-open" x1="0" y1="0" x2="0" y2="1"><stop offset="0%" stop-color="#4a4e55"></stop><stop offset="100%" stop-color="#32353b"></stop></linearGradient></defs><rect width="1620" height="990" fill="#141519"></rect><rect x="0" y="0" width="300" height="760" fill="#1b1c20"></rect><rect x="1320" y="0" width="300" height="760" fill="#1b1c20"></rect><circle cx="58" cy="196" r="84" fill="none" stroke="#3a3c43" stroke-width="3"></circle><circle cx="206" cy="330" r="54" fill="none" stroke="#33353b" stroke-width="3"></circle><circle cx="1562" cy="188" r="84" fill="none" stroke="#3a3c43" stroke-width="3"></circle><circle cx="1408" cy="322" r="54" fill="none" stroke="#33353b" stroke-width="3"></circle><rect x="18" y="392" width="72" height="330" rx="36" fill="#26282e"></rect><rect x="192" y="424" width="58" height="268" rx="29" fill="#232429"></rect><rect x="1530" y="392" width="72" height="330" rx="36" fill="#26282e"></rect><rect x="1370" y="424" width="58" height="268" rx="29" fill="#232429"></rect><rect x="640" y="20" width="342" height="700" fill="url(#bo-open)"></rect><rect x="700" y="120" width="224" height="560" fill="#5b616a" opacity=".55"></rect><rect x="318" y="40" width="92" height="700" fill="#212227" stroke="#31333a" stroke-width="2"></rect><rect x="1214" y="40" width="92" height="700" fill="#212227" stroke="#31333a" stroke-width="2"></rect><rect x="452" y="110" width="62" height="620" fill="#1e1f24" stroke="#2c2e34" stroke-width="2"></rect><rect x="1108" y="110" width="62" height="620" fill="#1e1f24" stroke="#2c2e34" stroke-width="2"></rect><rect x="548" y="170" width="44" height="548" fill="#1c1d21" stroke="#292b31" stroke-width="2"></rect><rect x="1032" y="170" width="44" height="548" fill="#1c1d21" stroke="#292b31" stroke-width="2"></rect><polygon points="168,990 1452,990 982,700 640,700" fill="url(#bo-floor)"></polygon><g stroke="#41444b" stroke-width="2.5" fill="none"><polyline points="640,700 982,700"></polyline><polyline points="604,736 1018,736"></polyline><polyline points="560,780 1062,780"></polyline><polyline points="508,832 1114,832"></polyline><polyline points="448,892 1174,892"></polyline><polyline points="380,960 1242,960"></polyline></g><g stroke="#26282d" stroke-width="1.5" opacity=".9"><line x1="168" y1="990" x2="640" y2="700"></line><line x1="420" y1="990" x2="740" y2="700"></line><line x1="1200" y1="990" x2="884" y2="700"></line><line x1="1452" y1="990" x2="982" y2="700"></line></g><rect x="252" y="800" width="196" height="120" rx="8" fill="#1f2025" stroke="#2c2e34" stroke-width="2"></rect><rect x="1044" y="596" width="150" height="230" rx="8" fill="#1f2025" stroke="#2c2e34" stroke-width="2"></rect><rect x="1206" y="790" width="180" height="110" rx="8" fill="#1d1e23" stroke="#2a2c32" stroke-width="2"></rect><g><circle cx="810" cy="674" r="17" fill="#c2c7cf"></circle><rect x="792" y="694" width="36" height="66" rx="17" fill="#c2c7cf"></rect><rect x="798" y="756" width="10" height="34" rx="5" fill="#9aa0a8"></rect><rect x="812" y="756" width="10" height="34" rx="5" fill="#9aa0a8"></rect></g><g transform="rotate(-72 828 862)"><rect x="812" y="812" width="32" height="64" rx="15" fill="#868b93"></rect><circle cx="828" cy="796" r="14" fill="#868b93"></circle></g><g><line x1="810" y1="944" x2="602" y2="706" stroke="#767b85" stroke-width="2.5" stroke-dasharray="10 12"></line><line x1="810" y1="944" x2="1020" y2="706" stroke="#767b85" stroke-width="2.5" stroke-dasharray="10 12"></line><rect x="776" y="936" width="68" height="40" rx="6" fill="#c2c7cf"></rect><polygon points="844,948 878,932 878,980 844,964" fill="#c2c7cf"></polygon></g></svg>